<svg width="40" height="40" viewBox="0 0 40 40" fill="none" xmlns="http://www.w3.org/2000/svg">
<g opacity="0.9" clip-path="url(#clip0_173_287)">
<path d="M5 20C5 21.9698 5.38799 23.9204 6.14181 25.7403C6.89563 27.5601 8.00052 29.2137 9.3934 30.6066C10.7863 31.9995 12.4399 33.1044 14.2597 33.8582C16.0796 34.612 18.0302 35 20 35C21.9698 35 23.9204 34.612 25.7403 33.8582C27.5601 33.1044 29.2137 31.9995 30.6066 30.6066C31.9995 29.2137 33.1044 27.5601 33.8582 25.7403C34.612 23.9204 35 21.9698 35 20C35 18.0302 34.612 16.0796 33.8582 14.2597C33.1044 12.4399 31.9995 10.7863 30.6066 9.3934C29.2137 8.00052 27.5601 6.89563 25.7403 6.14181C23.9204 5.38799 21.9698 5 20 5C18.0302 5 16.0796 5.38799 14.2597 6.14181C12.4399 6.89563 10.7863 8.00052 9.3934 9.3934C8.00052 10.7863 6.89563 12.4399 6.14181 14.2597C5.38799 16.0796 5 18.0302 5 20Z" stroke="white" strokeWidth="2" strokeLineCap="round" strokeLineJoin="round"/>
<path d="M20 5V35" stroke="white" strokeWidth="2" strokeLineCap="round" strokeLineJoin="round"/>
<path d="M20 20L30.5 30.5" stroke="white" strokeWidth="2" strokeLineCap="round" strokeLineJoin="round"/>
<path d="M20 20L9.5 30.5" stroke="white" strokeWidth="2" strokeLineCap="round" strokeLineJoin="round"/>
</g>
<defs>
<clipPath id="clip0_173_287">
<rect width="40" height="40" fill="white"/>
</clipPath>
</defs>
</svg>
