<svg width="41" height="40" viewBox="0 0 41 40" fill="none" xmlns="http://www.w3.org/2000/svg">
<g opacity="0.9">
<path d="M35.2333 7.68332C34.3821 6.83166 33.3714 6.15607 32.2589 5.69513C31.1465 5.23419 29.9541 4.99695 28.75 4.99695C27.5459 4.99695 26.3535 5.23419 25.2411 5.69513C24.1286 6.15607 23.1179 6.83166 22.2667 7.68332L20.5 9.44999L18.7333 7.68332C17.0138 5.96384 14.6817 4.99784 12.25 4.99784C9.81828 4.99784 7.48615 5.96384 5.76667 7.68332C4.04718 9.40281 3.08118 11.7349 3.08118 14.1667C3.08118 16.5984 4.04718 18.9305 5.76667 20.65L7.53333 22.4167L20.5 35.3833L33.4667 22.4167L35.2333 20.65C36.085 19.7987 36.7606 18.788 37.2215 17.6756C37.6825 16.5632 37.9197 15.3708 37.9197 14.1667C37.9197 12.9625 37.6825 11.7702 37.2215 10.6577C36.7606 9.5453 36.085 8.53458 35.2333 7.68332Z" stroke="white" strokeWidth="2" strokeLineCap="round" strokeLineJoin="round"/>
<path d="M29.7729 19.6182H26.1618L23.4535 24.6182L18.0368 14.6182L15.3285 19.6182H11.7174" stroke="white" strokeWidth="2" strokeLineCap="round" strokeLineJoin="round"/>
</g>
</svg>
